<svg xmlns="http://www.w3.org/2000/svg" xmlns:xlink="http://www.w3.org/1999/xlink">

    <symbol id="minus" viewBox="0 0 16 16">
        <title>minus</title>
        <path d="M14.125 7h-12.25c-0.525 0-0.875 0.35-0.875 0.875s0.35 0.875 0.875 0.875h12.25c0.525 0 0.875-0.35 0.875-0.875s-0.35-0.875-0.875-0.875z"></path>
    </symbol>
    <symbol id="plus" viewBox="0 0 16 16">
        <title>plus</title>
        <path d="M14.125 7.125h-5.25v-5.25c0-0.525-0.35-0.875-0.875-0.875s-0.875 0.35-0.875 0.875v5.25h-5.25c-0.525 0-0.875 0.35-0.875 0.875s0.35 0.875 0.875 0.875h5.25v5.25c0 0.525 0.35 0.875 0.875 0.875s0.875-0.35 0.875-0.875v-5.25h5.25c0.525 0 0.875-0.35 0.875-0.875s-0.35-0.875-0.875-0.875z"></path>
    </symbol>

</svg>