<svg style="display: none;" xmlns="http://www.w3.org/2000/svg" xmlns:xlink="http://www.w3.org/1999/xlink">

    <symbol id="minus" viewBox="0 0 16 16">
        <title>minus</title>
        <path d="M14.125 7h-12.25c-0.525 0-0.875 0.35-0.875 0.875s0.35 0.875 0.875 0.875h12.25c0.525 0 0.875-0.35 0.875-0.875s-0.35-0.875-0.875-0.875z"></path>
    </symbol>
    <symbol id="plus" viewBox="0 0 16 16">
        <title>plus</title>
        <path d="M14.125 7.125h-5.25v-5.25c0-0.525-0.35-0.875-0.875-0.875s-0.875 0.35-0.875 0.875v5.25h-5.25c-0.525 0-0.875 0.35-0.875 0.875s0.35 0.875 0.875 0.875h5.25v5.25c0 0.525 0.35 0.875 0.875 0.875s0.875-0.35 0.875-0.875v-5.25h5.25c0.525 0 0.875-0.35 0.875-0.875s-0.35-0.875-0.875-0.875z"></path>
    </symbol>
    
    <symbol id="square" viewBox="0 0 16 16">
        <title>square</title>
        <path d="M4.375,8.875 C4.16875,8.875 4,8.70625 4,8.5 L4,7.5 C4,7.29375 4.16875,7.125 4.375,7.125 L11.625,7.125 C11.83125,7.125 12,7.29375 12,7.5 L12,8.5 C12,8.70625 11.83125,8.875 11.625,8.875 L4.375,8.875 Z M15,2.5 L15,13.5 C15,14.328125 14.328125,15 13.5,15 L2.5,15 C1.671875,15 1,14.328125 1,13.5 L1,2.5 C1,1.671875 1.671875,1 2.5,1 L13.5,1 C14.328125,1 15,1.671875 15,2.5 Z M13.5,13.3125 L13.5,2.6875 C13.5,2.584375 13.415625,2.5 13.3125,2.5 L2.6875,2.5 C2.584375,2.5 2.5,2.584375 2.5,2.6875 L2.5,13.3125 C2.5,13.415625 2.584375,13.5 2.6875,13.5 L13.3125,13.5 C13.415625,13.5 13.5,13.415625 13.5,13.3125 Z"/>
    </symbol>

</svg>