<svg aria-hidden="true" style="position: absolute; width: 0; height: 0; overflow: hidden;" version="1.1" xmlns="http://www.w3.org/2000/svg" xmlns:xlink="http://www.w3.org/1999/xlink">
<defs>
<symbol id="aui-icon-minus_square" viewBox="0 0 16 16">
<title>minus_square</title>
<path d="M4.375 8.875c-0.206 0-0.375-0.169-0.375-0.375v-1c0-0.206 0.169-0.375 0.375-0.375h7.25c0.206 0 0.375 0.169 0.375 0.375v1c0 0.206-0.169 0.375-0.375 0.375h-7.25zM15 2.5v11c0 0.828-0.672 1.5-1.5 1.5h-11c-0.828 0-1.5-0.672-1.5-1.5v-11c0-0.828 0.672-1.5 1.5-1.5h11c0.828 0 1.5 0.672 1.5 1.5zM13.5 13.313v-10.625c0-0.103-0.084-0.188-0.188-0.188h-10.625c-0.103 0-0.188 0.084-0.188 0.188v10.625c0 0.103 0.084 0.188 0.188 0.188h10.625c0.103 0 0.188-0.084 0.188-0.188z"></path>
</symbol>
</defs>
</svg>
