<svg xmlns="http://www.w3.org/2000/svg" width="44" height="44" viewBox="0 0 44 44">
  <g fill="#19E" fill-rule="evenodd">
    <path d="M4 0L16 0 16 0C18.209139-4.05812251e-16 20 1.790861 20 4L20 20 4 20 4 20C1.790861 20 2.705415e-16 18.209139 0 16L0 4 0 4C-2.705415e-16 1.790861 1.790861 4.05812251e-16 4 0zM4 24L20 24 20 40 20 40C20 42.209139 18.209139 44 16 44L4 44 4 44C1.790861 44 2.705415e-16 42.209139 0 40L0 28 0 28C-2.705415e-16 25.790861 1.790861 24 4 24zM24 24L40 24 40 24C42.209139 24 44 25.790861 44 28L44 40 44 40C44 42.209139 42.209139 44 40 44L28 44 28 44C25.790861 44 24 42.209139 24 40L24 24zM28 0L40 0 40 0C42.209139-4.05812251e-16 44 1.790861 44 4L44 16 44 16C44 18.209139 42.209139 20 40 20L24 20 24 4 24 4C24 1.790861 25.790861 4.05812251e-16 28 0z"/>
  </g>
</svg>
