<svg xmlns="http://www.w3.org/2000/svg" width="88" height="88" viewBox="0 0 88 88">
  <g fill="#DDD" fill-rule="evenodd">
    <path d="M8 0L32 0 32 0C36.418278-8.11624501e-16 40 3.581722 40 8L40 40 8 40 8 40C3.581722 40 5.41083001e-16 36.418278 0 32L0 8 0 8C-5.41083001e-16 3.581722 3.581722 8.11624501e-16 8 0zM8 48L40 48 40 80 40 80C40 84.418278 36.418278 88 32 88L8 88 8 88C3.581722 88 5.41083001e-16 84.418278 0 80L0 56 0 56C-5.41083001e-16 51.581722 3.581722 48 8 48zM48 48L80 48 80 48C84.418278 48 88 51.581722 88 56L88 80 88 80C88 84.418278 84.418278 88 80 88L56 88 56 88C51.581722 88 48 84.418278 48 80L48 48zM56 0L80 0 80 0C84.418278-8.11624501e-16 88 3.581722 88 8L88 32 88 32C88 36.418278 84.418278 40 80 40L48 40 48 8 48 8C48 3.581722 51.581722 8.11624501e-16 56 0z"/>
  </g>
</svg>
